/* XPM */
static char * pause_xpm[] = {
"50 50 51 1",
" 	c #FFFFFF",
".	c #DEDEDE",
"+	c #A6A6A6",
"@	c #888888",
"#	c #AAAAAA",
"$	c #5A5A5A",
"%	c #373737",
"&	c #464646",
"*	c #848484",
"=	c #E8E8E8",
"-	c #CFCFCF",
";	c #6E6E6E",
">	c #262626",
",	c #080808",
"'	c #1D1D1D",
")	c #040404",
"!	c #000000",
"~	c #010101",
"{	c #090909",
"]	c #444444",
"^	c #0E0E0E",
"/	c #1A1A1A",
"(	c #020202",
"_	c #555555",
":	c #1F1F1F",
"<	c #474747",
"[	c #030303",
"}	c #0D0D0D",
"|	c #A9A9A9",
"1	c #767676",
"2	c #212121",
"3	c #7B7B7B",
"4	c #595959",
"5	c #1B1B1B",
"6	c #505050",
"7	c #272727",
"8	c #434343",
"9	c #393939",
"0	c #3E3E3E",
"a	c #3F3F3F",
"b	c #414141",
"c	c #454545",
"d	c #898989",
"e	c #BCBCBC",
"f	c #383838",
"g	c #6D6D6D",
"h	c #9F9F9F",
"i	c #DDDDDD",
"j	c #878787",
"k	c #4C4C4C",
"l	c #101010",
"                                                  ",
"                                                  ",
"                                                  ",
"                                                  ",
"                                                  ",
"                                                  ",
"                                                  ",
"             .+@@+.         #$%&*=                ",
"            -;>,,>;-       *')!~{].               ",
"           .;^!!!!^;.     #/!!!!!(_=              ",
"           +:!!!!!!:+     <[!!!!!!}|              ",
"           1[!!!!!![1     2!!!!!!!!3              ",
"           4~!!!!!!~4     5!!!!!!!!6              ",
"           &!!!!!!!!&     7!!!!!!!!8              ",
"           <!!!!!!!!<     9!!!!!!!!0              ",
"           a!!!!!!!!a     b!!!!!!!!b              ",
"           b!!!!!!!!b     a!!!!!!!!a              ",
"           a!!!!!!!!a     &!!!!!!!!&              ",
"           b!!!!!!!!b     &!!!!!!!!&              ",
"           a!!!!!!!!a     &!!!!!!!!&              ",
"           <!!!!!!!!<     <!!!!!!!!<              ",
"           &!!!!!!!!&     a!!!!!!!!a              ",
"           &!!!!!!!!&     b!!!!!!!!b              ",
"           &!!!!!!!!&     a!!!!!!!!a              ",
"           a!!!!!!!!a     b!!!!!!!!b              ",
"           b!!!!!!!!b     a!!!!!!!!a              ",
"           a!!!!!!!!a     &!!!!!!!!&              ",
"           b!!!!!!!!b     &!!!!!!!!&              ",
"           a!!!!!!!!a     &!!!!!!!!&              ",
"           <!!!!!!!!<     <!!!!!!!!<              ",
"           &!!!!!!!!&     a!!!!!!!!a              ",
"           &!!!!!!!!&     b!!!!!!!!b              ",
"           &!!!!!!!!&     a!!!!!!!!a              ",
"           a!!!!!!!!a     b!!!!!!!!b              ",
"           b!!!!!!!!b     a!!!!!!!!a              ",
"           a!!!!!!!!a     &!!!!!!!!&              ",
"           b!!!!!!!!b     &!!!!!!!!&              ",
"           a!!!!!!!!a     &!!!!!!!!&              ",
"           <!!!!!!!!<     <!!!!!!!!<              ",
"           &!!!!!!!!&     a!!!!!!!!a              ",
"           4~!!!!!!~4     c!!!!!!!!c              ",
"           1[!!!!!![1     $!!!!!!!!$              ",
"           +:!!!!!!:+     d{!!!!!!{d              ",
"           .;^!!!!^;.     ef!!!!!!fe              ",
"            -g>,,>g-       h'!!!!'h               ",
"             i+jj+i         ekllke                ",
"                                                  ",
"                                                  ",
"                                                  ",
"                                                  "};
