/* XPM */
static const char * refresh_xpm[] = {
"50 50 124 2",
"  	c #FFFFFF",
". 	c #FDE8E8",
"+ 	c #F7A2A2",
"@ 	c #F36868",
"# 	c #EF3B3B",
"$ 	c #EC1B1B",
"% 	c #EB0808",
"& 	c #EA0101",
"* 	c #F8A8A8",
"= 	c #F04949",
"- 	c #EA0000",
"; 	c #F8AAAA",
"> 	c #EE3030",
", 	c #FDECEC",
"' 	c #F15858",
") 	c #FAC2C2",
"! 	c #ED2121",
"~ 	c #F9B2B2",
"{ 	c #EA0404",
"] 	c #F04A4A",
"^ 	c #F69191",
"/ 	c #FAC5C5",
"( 	c #FDE9E9",
"_ 	c #FFFBFB",
": 	c #FBD7D7",
"< 	c #F47575",
"[ 	c #FCDFDF",
"} 	c #F9BCBC",
"| 	c #FEF5F5",
"1 	c #F47F7F",
"2 	c #F04646",
"3 	c #FBD4D4",
"4 	c #EC1919",
"5 	c #FDE2E2",
"6 	c #F7A4A4",
"7 	c #F9B1B1",
"8 	c #F26161",
"9 	c #EE3636",
"0 	c #F36F6F",
"a 	c #F04B4B",
"b 	c #F79999",
"c 	c #F47B7B",
"d 	c #F8ABAB",
"e 	c #F48282",
"f 	c #F04747",
"g 	c #F26565",
"h 	c #F37373",
"i 	c #FACACA",
"j 	c #F79E9E",
"k 	c #F9BABA",
"l 	c #F69090",
"m 	c #F9ADAD",
"n 	c #F36C6C",
"o 	c #F68A8A",
"p 	c #F15151",
"q 	c #EC1E1E",
"r 	c #FEF4F4",
"s 	c #FDE5E5",
"t 	c #FCD7D7",
"u 	c #F9B3B3",
"v 	c #F69A9A",
"w 	c #F68989",
"x 	c #FEF2F2",
"y 	c #FDE3E3",
"z 	c #EB0A0A",
"A 	c #F69494",
"B 	c #FEF0F0",
"C 	c #FDE7E7",
"D 	c #FEF3F3",
"E 	c #FABABA",
"F 	c #FAC1C1",
"G 	c #F58888",
"H 	c #EE3333",
"I 	c #FEF9F9",
"J 	c #FCE1E1",
"K 	c #EC1515",
"L 	c #F36E6E",
"M 	c #FBD2D2",
"N 	c #FFFCFC",
"O 	c #FAC3C3",
"P 	c #FEFBFB",
"Q 	c #FEFCFC",
"R 	c #F26060",
"S 	c #F68E8E",
"T 	c #F58787",
"U 	c #FEFAFA",
"V 	c #F8A4A4",
"W 	c #F15757",
"X 	c #F69797",
"Y 	c #FCD5D5",
"Z 	c #EE2D2D",
"` 	c #EB0B0B",
" .	c #F14E4E",
"..	c #EB1111",
"+.	c #FDEAEA",
"@.	c #EF3939",
"#.	c #EC1414",
"$.	c #EE2B2B",
"%.	c #F79191",
"&.	c #FFFDFD",
"*.	c #EA0303",
"=.	c #F47979",
"-.	c #EB1010",
";.	c #EB1212",
">.	c #EB1313",
",.	c #FAB8B8",
"'.	c #EB0909",
").	c #EA0606",
"!.	c #EB0606",
"~.	c #FBC9C9",
"{.	c #EF3737",
"].	c #EC1717",
"^.	c #ED2727",
"/.	c #ED1B1B",
"(.	c #EB0707",
"_.	c #EA0202",
":.	c #ED1D1D",
"<.	c #EC2020",
"[.	c #F04343",
"}.	c #EE3535",
"|.	c #F04E4E",
"1.	c #EC1818",
"2.	c #EE2C2C",
"3.	c #ED2020",
"                                                                                                    ",
"                                                                                                    ",
"                                                                                                    ",
"                                                                                                    ",
"                                                                                                    ",
"                                                                                                    ",
"                                      . + @ # $ % & % $ # @ + .                                     ",
"                                  * = - - - - - - - - - - - - - = *                                 ",
"                              ; > - - - - - - - - - - - - - - - - - > ;                             ",
"                          , ' - - - - - - - - - - - - - - - - - - - - - ' ,                         ",
"                        ) ! - - - - - - - - - - - - - - - - - - - - - - - ! )                       ",
"                      ~ { - - - - - - - - ] ^ / ( _ _ ( / ^ ] - - - - - - - { ~                     ",
"                    : & - - - - - - - < [                     [ < - - - - - - & }                   ",
"                  | 1 - - - - - - 2 3                             3 2 - - - - - 4 5                 ",
"                  6 7 8 9 - 9 9 0                                     0 - - - - - a                 ",
"                b c d e f g c ^                                         h - - - - - b               ",
"                i j k l m n o                                             p - - - - q               ",
"              r ( s t u v w x                                             y z - - - - A             ",
"              B C D r C E F                                                 G - - - - H             ",
"            I J K L r | t I                                                 r % - - - - M           ",
"            N d - - O P Q                                                     R - - - - S           ",
"            J - - - - T U                                                     V - - - - W           ",
"            ] - - - - - X                                                     Y - - - - Z           ",
"        , S ` - - - - -  .^                                                   D - - - - ..          ",
"      +.g @.& - - - - - #.$.%.                                                &.- - - - *.          ",
"    +.=.-.4 & - - - - - ;.>.@ ,.                                              D - - - - *.          ",
"  +.0 '.).z *.- - - - - '.!...a ~.                                            Y - - - - ..          ",
"+.=.{.].^./.(.- - - - - _.{ & ^.0 +.                                          V - - - - Z           ",
":.<.[.}.[.|.$ - - - - - '.1.K 2.|.3.                                          R - - - - W           ",
"            S - - - - - % r                                                 r % - - - - S           ",
"            M - - - - - - G                                                 G - - - - - M           ",
"              H - - - - - z y                                             y z - - - - H             ",
"              A - - - - - - p                                             p - - - - - A             ",
"                q - - - - - - h                                         h - - - - - q               ",
"                b - - - - - - - 0                                     0 - - - - - - b               ",
"                  a - - - - - - - 2 3                             3 2 - - - - - - a                 ",
"                  5 4 - - - - - - - - < [                     [ < - - - - - - - 4 5                 ",
"                    } & - - - - - - - - - ] ^ / ( _ _ ( / ^ ] - - - - - - - - & }                   ",
"                      ~ { - - - - - - - - - - - - - - - - - - - - - - - - - { ~                     ",
"                        ) ! - - - - - - - - - - - - - - - - - - - - - - - ! )                       ",
"                          , ' - - - - - - - - - - - - - - - - - - - - - ' ,                         ",
"                              ; > - - - - - - - - - - - - - - - - - > ;                             ",
"                                  * = - - - - - - - - - - - - - = *                                 ",
"                                      . + @ # $ % & % $ # @ + .                                     ",
"                                                                                                    ",
"                                                                                                    ",
"                                                                                                    ",
"                                                                                                    ",
"                                                                                                    ",
"                                                                                                    "};
